HIERARCHY
ROOT SpineBase
{
  OFFSET 0.000000 0.000000 0.000000
  CHANNELS 6 Xposition Yposition Zposition Zrotation Xrotation Yrotation
  JOINT SpineMid
  {
    OFFSET -0.000000 31.517893 0.000000
    CHANNELS 3 Zrotation Xrotation Yrotation
    JOINT SpineShoulder
    {
      OFFSET 0.042027 23.229106 -0.747172
      CHANNELS 3 Zrotation Xrotation Yrotation
      JOINT Neck
      {
        OFFSET 0.048894 7.659200 -0.590310
        CHANNELS 3 Zrotation Xrotation Yrotation
        JOINT Head
        {
          OFFSET 1.761651 10.714210 5.775496
          CHANNELS 3 Zrotation Xrotation Yrotation
          End Site
          {
            OFFSET 0 0 0
          }
        }
      }
      JOINT ShoulderLeft
      {
        OFFSET -1.570392 -2.956160 -9.184747
        CHANNELS 3 Zrotation Xrotation Yrotation
        JOINT ElbowLeft
        {
          OFFSET -3.935863 -21.159091 -5.928381
          CHANNELS 3 Zrotation Xrotation Yrotation
          JOINT WristLeft
          {
            OFFSET 22.992275 4.349303 -1.554508
            CHANNELS 3 Zrotation Xrotation Yrotation
            JOINT HandLeft
            {
              OFFSET 2.719563 2.883419 -1.298560
              CHANNELS 3 Zrotation Xrotation Yrotation
              JOINT HandTipLeft
              {
                OFFSET 3.203835 3.403227 -0.879083
                CHANNELS 3 Zrotation Xrotation Yrotation
                End Site
                {
                  OFFSET 0 0 0
                }
              }
              JOINT ThumbLeft
              {
                OFFSET 1.652189 -1.819120 -2.563944
                CHANNELS 3 Zrotation Xrotation Yrotation
                End Site
                {
                  OFFSET 0 0 0
                }
              }
            }
          }
        }
      }
      JOINT ShoulderRight
      {
        OFFSET 9.096030 -8.056934 11.624458
        CHANNELS 3 Zrotation Xrotation Yrotation
        JOINT ElbowRight
        {
          OFFSET -10.259614 -12.642138 -19.413965
          CHANNELS 3 Zrotation Xrotation Yrotation
          JOINT WristRight
          {
            OFFSET 19.782557 10.494378 -11.084041
            CHANNELS 3 Zrotation Xrotation Yrotation
            JOINT HandRight
            {
              OFFSET 6.024156 6.418685 -6.357255
              CHANNELS 3 Zrotation Xrotation Yrotation
              JOINT HandTipRight
              {
                OFFSET 0.605810 4.411852 -0.664252
                CHANNELS 3 Zrotation Xrotation Yrotation
                End Site
                {
                  OFFSET 0 0 0
                }
              }
              JOINT ThumbRight
              {
                OFFSET 1.027341 5.300943 -3.361086
                CHANNELS 3 Zrotation Xrotation Yrotation
                End Site
                {
                  OFFSET 0 0 0
                }
              }
            }
          }
        }
      }
    }
  }
  JOINT HipLeft
  {
    OFFSET -1.936246 2.758373 -6.097099
    CHANNELS 3 Zrotation Xrotation Yrotation
    JOINT KneeLeft
    {
      OFFSET -3.988892 -30.890731 -1.173479
      CHANNELS 3 Zrotation Xrotation Yrotation
      JOINT AnkleLeft
      {
        OFFSET -6.062052 -31.461451 1.203034
        CHANNELS 3 Zrotation Xrotation Yrotation
        JOINT FootLeft
        {
          OFFSET 3.641821 -6.020703 3.682026
          CHANNELS 3 Zrotation Xrotation Yrotation
          End Site
          {
            OFFSET 0 0 0
          }
        }
      }
    }
  }
  JOINT HipRight
  {
    OFFSET 3.152516 -0.376499 -0.749278
    CHANNELS 3 Zrotation Xrotation Yrotation
    JOINT KneeRight
    {
      OFFSET -0.835339 -32.583288 9.319241
      CHANNELS 3 Zrotation Xrotation Yrotation
      JOINT AnkleRight
      {
        OFFSET -10.841638 -30.483129 -7.027591
        CHANNELS 3 Zrotation Xrotation Yrotation
        JOINT FootRight
        {
          OFFSET 0.195123 -7.116634 0.575209
          CHANNELS 3 Zrotation Xrotation Yrotation
          End Site
          {
            OFFSET 0 0 0
          }
        }
      }
    }
  }
}
MOTION
Frames: 10
Frame Time: 0.033333
-55.897681 70.759504 307.447063 -2.508564 0.507198 -9.626066 -2.014895 -0.122683 9.484211 0.543727 -0.083009 -0.163253 19.985507 0.223195 -8.582201 0.000000 0.000000 0.000000 29.804475 13.126951 -12.553039 20.006471 -3.981959 24.272553 8.548957 9.268008 1.096656 -1.840495 -7.494701 -0.647736 0.000000 0.000000 0.000000 0.000000 0.000000 0.000000 9.288061 8.735190 -14.498454 -7.006329 -15.871221 15.699120 -12.193767 2.267280 -14.522044 24.871497 -15.625608 16.301478 0.000000 0.000000 0.000000 0.000000 0.000000 0.000000 6.309298 4.393559 8.836925 -7.304884 -3.519897 0.152731 4.421272 -0.720743 0.881054 0.000000 0.000000 0.000000 1.902699 2.345886 9.518440 0.491166 -3.990390 0.628817 7.726108 -16.833439 0.739961 0.000000 0.000000 0.000000
-55.779060 70.684603 307.693350 -3.172361 0.202509 -5.788962 -2.200161 -0.198078 5.613924 0.583123 -0.132020 -0.201401 24.381070 2.330045 -11.225264 0.000000 0.000000 0.000000 40.098198 15.000542 -17.691433 14.459777 -3.975112 33.750107 10.039151 11.784347 -18.109338 3.070721 -16.725998 29.866667 0.000000 0.000000 0.000000 0.000000 0.000000 0.000000 12.428861 11.045734 -19.164013 -4.691841 -17.844249 23.313708 -16.058993 3.738385 -18.391439 28.078057 -11.921880 17.504714 0.000000 0.000000 0.000000 0.000000 0.000000 0.000000 8.514899 4.957036 4.776553 -9.558756 -3.760000 0.025217 3.612486 -9.958014 -5.276386 0.000000 0.000000 0.000000 1.533011 5.140300 5.406827 2.140211 -7.636135 1.295888 0.504737 -19.192000 -0.907688 0.000000 0.000000 0.000000
-55.619211 70.401082 307.970380 -3.802346 -0.245890 -5.818932 -2.079542 -0.457078 5.609332 0.613949 -0.203192 -0.226904 26.193528 4.666773 -12.753699 0.000000 0.000000 0.000000 50.533119 16.147722 -23.533098 11.060865 -3.851266 37.949812 7.836252 11.467451 -16.028096 8.594459 -13.397248 32.724987 0.000000 0.000000 0.000000 0.000000 0.000000 0.000000 15.717787 14.398902 -25.028216 0.298940 -18.416111 34.111368 -14.525753 4.941149 -18.771112 30.075509 -18.759356 18.110156 0.000000 0.000000 0.000000 0.000000 0.000000 0.000000 10.490123 5.611362 4.588507 -11.749881 -3.470474 -0.112514 5.404868 -11.148672 -4.968612 0.000000 0.000000 0.000000 1.170822 7.861728 5.254098 3.175915 -10.408651 1.848006 4.647617 -9.531709 -0.304494 0.000000 0.000000 0.000000
-55.392703 70.001180 308.262584 -4.243944 -0.804344 -10.001717 -1.706439 -0.801787 9.761676 0.604379 -0.228778 -0.235864 25.509182 7.013292 -12.975379 0.000000 0.000000 0.000000 60.869922 16.322506 -29.815889 14.697339 2.590798 43.128706 13.200496 12.277383 -17.362807 0.173965 -13.324066 29.288512 0.000000 0.000000 0.000000 0.000000 0.000000 0.000000 19.075147 16.844519 -31.076132 5.896008 -14.589846 46.280934 -5.279168 7.481213 -16.424382 21.042874 -26.485578 14.922167 0.000000 0.000000 0.000000 0.000000 0.000000 0.000000 11.752057 6.633486 8.556268 -13.566633 -2.686238 -0.188438 9.088841 -5.180449 0.609007 0.000000 0.000000 0.000000 -0.030132 10.420360 9.382115 3.597211 -12.421460 2.238056 3.620473 -11.499413 -0.539178 0.000000 0.000000 0.000000
-55.286253 69.809125 308.350198 -4.900420 -1.026694 -16.174633 -1.098861 -1.072086 15.903496 0.328402 -0.067714 -0.255275 24.451161 7.762488 -12.197790 0.000000 0.000000 0.000000 69.676065 12.746272 -32.726098 13.047875 8.486543 44.639371 14.205807 11.799865 -25.925845 1.044709 -11.277215 35.237975 0.000000 0.000000 0.000000 0.000000 0.000000 0.000000 24.101094 17.800736 -38.893731 8.816895 -6.897401 58.525955 9.395058 9.753382 -8.582404 -1.325027 -41.599774 4.658514 0.000000 0.000000 0.000000 0.000000 0.000000 0.000000 13.032952 7.185972 14.649890 -14.905884 -1.089401 -0.161415 15.227144 7.981553 11.582682 0.000000 0.000000 0.000000 -1.467168 12.330236 15.675252 4.057901 -14.341679 2.583930 10.818277 -12.540683 0.563102 0.000000 0.000000 0.000000
-55.182559 69.693277 308.423487 -5.457607 -1.254278 -12.384407 -0.647876 -0.942664 12.092402 -0.247268 0.108881 -0.281894 22.306344 8.056732 -10.468215 0.000000 0.000000 0.000000 77.187924 8.904509 -34.290706 6.672764 12.266220 48.619622 17.163716 4.784086 -63.495855 3.926628 -4.960649 62.777518 0.000000 0.000000 0.000000 0.000000 0.000000 0.000000 29.191058 17.358675 -46.306755 7.919128 2.492356 67.567420 18.434174 12.837014 -1.613970 -27.893341 -53.172348 -8.638575 0.000000 0.000000 0.000000 0.000000 0.000000 0.000000 14.631640 7.229917 10.653580 -15.718803 -1.398862 -0.202164 18.716121 28.331930 26.027836 0.000000 0.000000 0.000000 -0.278225 12.796960 11.769545 3.883552 -14.432881 2.641109 23.677224 2.297532 -0.214115 0.000000 0.000000 0.000000
-55.065167 69.733223 308.486083 -6.135039 -1.304429 -10.427211 -0.185669 -0.826955 10.113680 -0.214443 0.270397 -0.278945 20.387527 7.101794 -8.906683 0.000000 0.000000 0.000000 81.948466 5.263267 -34.132915 -4.805232 13.054051 56.240492 12.881555 1.058282 -108.582243 8.039558 1.318194 90.854544 0.000000 0.000000 0.000000 0.000000 0.000000 0.000000 33.731599 15.092689 -53.440045 3.332914 9.981490 74.686021 15.163276 12.138935 1.798229 -44.394238 -59.690020 -17.161164 0.000000 0.000000 0.000000 0.000000 0.000000 0.000000 16.426949 6.956876 8.583022 -16.828362 -1.088618 -0.237279 11.042665 47.250024 42.376180 0.000000 0.000000 0.000000 1.180660 11.865862 9.725722 2.916725 -12.758139 2.319447 35.134172 26.171156 -6.683927 0.000000 0.000000 0.000000
-54.903757 69.863598 308.582878 -6.744663 -1.291349 -8.135855 -0.172545 -0.580470 7.807470 -0.280635 0.327762 -0.303757 20.031360 5.120022 -7.787219 0.000000 0.000000 0.000000 85.106029 3.273887 -33.712067 -27.883466 -4.028851 62.157277 16.885386 32.429700 -133.722815 33.033230 22.697395 84.973384 0.000000 0.000000 0.000000 0.000000 0.000000 0.000000 39.592124 11.275010 -62.372514 -4.775882 13.082535 77.807006 8.235692 12.001332 1.288202 -40.186738 -61.604371 -12.363761 0.000000 0.000000 0.000000 0.000000 0.000000 0.000000 17.697382 6.518649 6.262203 -17.235630 -0.967384 -0.271435 -10.701790 58.603502 64.595248 0.000000 0.000000 0.000000 2.053543 11.744692 7.325261 2.015981 -11.176571 1.907444 40.622257 49.326121 -15.526901 0.000000 0.000000 0.000000
-54.735656 70.162264 308.656399 -7.285413 -1.273023 -6.010041 -0.128461 -0.399379 5.669053 -0.358366 0.395262 -0.324836 18.885161 3.958361 -6.448864 0.000000 0.000000 0.000000 88.417895 2.281967 -34.363613 -53.030874 -26.122269 54.680955 28.155368 46.120532 -123.653395 49.687333 22.426945 76.620891 0.000000 0.000000 0.000000 0.000000 0.000000 0.000000 44.714562 3.097782 -70.671902 -16.082988 11.703583 75.886186 -1.412205 9.750258 0.677238 -23.167928 -61.646691 1.532242 0.000000 0.000000 0.000000 0.000000 0.000000 0.000000 18.428498 6.034377 4.174583 -17.108635 -0.834242 -0.312440 -41.610758 60.862346 90.970484 0.000000 0.000000 0.000000 2.937253 11.843854 5.130739 1.562736 -11.746998 2.105496 41.370456 65.622134 -23.382802 0.000000 0.000000 0.000000
-54.665463 70.612672 308.654111 -7.804031 -1.136507 -3.897249 -0.219830 -0.199774 3.552692 -0.587498 0.489971 -0.359416 18.888725 2.800313 -5.632880 0.000000 0.000000 0.000000 90.809408 2.856963 -35.617189 -74.553797 -38.631504 36.305556 23.039673 51.972277 -99.773567 46.087756 -6.982529 60.725714 0.000000 0.000000 0.000000 0.000000 0.000000 0.000000 48.453903 -8.018394 -77.043584 -28.012523 3.718448 67.757652 -11.864359 3.207338 0.933354 -2.037189 -53.967439 16.158445 0.000000 0.000000 0.000000 0.000000 0.000000 0.000000 18.909670 5.371092 2.181750 -16.600977 -0.729743 -0.335356 -68.122652 55.967554 108.474230 0.000000 0.000000 0.000000 3.752599 11.875671 2.951211 1.891674 -13.819883 2.796425 33.278154 78.068371 -24.458560 0.000000 0.000000 0.000000
